SEKUYA-old.ufo
<glyph name="numbersign" format="2">
  <advance width="762"/>
  <unicode hex="0023"/>
  <outline>
    <contour>
      <point x="254" y="779" type="qcurve"/>
      <point x="376" y="779" type="line"/>
      <point x="355" y="645"/>
      <point x="339" y="571" type="qcurve"/>
      <point x="487" y="571" type="line"/>
      <point x="493" y="611"/>
      <point x="521" y="754"/>
      <point x="525" y="779" type="qcurve"/>
      <point x="647" y="779" type="line"/>
      <point x="642" y="746"/>
      <point x="616" y="608"/>
      <point x="610" y="571" type="qcurve"/>
      <point x="737" y="571" type="line"/>
      <point x="737" y="569"/>
      <point x="725" y="489"/>
      <point x="721" y="470" type="qcurve"/>
      <point x="593" y="470" type="line"/>
      <point x="578" y="413"/>
      <point x="555" y="274" type="qcurve"/>
      <point x="689" y="274" type="line"/>
      <point x="680" y="248"/>
      <point x="668" y="173" type="qcurve"/>
      <point x="540" y="173" type="line"/>
      <point x="508" y="-2" type="line"/>
      <point x="386" y="-2" type="line"/>
      <point x="418" y="173" type="line"/>
      <point x="270" y="173" type="line"/>
      <point x="238" y="-2" type="line"/>
      <point x="115" y="-2" type="line"/>
      <point x="147" y="173" type="line"/>
      <point x="25" y="173" type="line"/>
      <point x="26" y="179"/>
      <point x="40" y="255"/>
      <point x="46" y="274" type="qcurve"/>
      <point x="163" y="274" type="line"/>
      <point x="169" y="314"/>
      <point x="196" y="446"/>
      <point x="200" y="470" type="qcurve"/>
      <point x="78" y="470" type="line"/>
      <point x="91" y="553"/>
      <point x="95" y="571" type="qcurve"/>
      <point x="216" y="571" type="line"/>
      <point x="230" y="631"/>
    </contour>
    <contour>
      <point x="471" y="470" type="qcurve"/>
      <point x="322" y="470" type="line"/>
      <point x="318" y="449"/>
      <point x="292" y="314"/>
      <point x="286" y="274" type="qcurve"/>
      <point x="434" y="274" type="line"/>
      <point x="454" y="403"/>
    </contour>
  </outline>
</glyph>
<glyph name="percent" format="2">
  <advance width="1088"/>
  <unicode hex="0025"/>
  <outline>
    <contour>
      <point x="178" y="747" type="qcurve"/>
      <point x="269" y="762"/>
      <point x="365" y="736" type="qcurve"/>
      <point x="443" y="709"/>
      <point x="471" y="651" type="qcurve" smooth="yes"/>
      <point x="503" y="586"/>
      <point x="476" y="508" type="qcurve" smooth="yes"/>
      <point x="468" y="477"/>
      <point x="426" y="430"/>
      <point x="397" y="418" type="qcurve" smooth="yes"/>
      <point x="335" y="386"/>
      <point x="233" y="386" type="qcurve"/>
      <point x="137" y="395"/>
      <point x="85" y="433" type="qcurve" smooth="yes"/>
      <point x="43" y="463"/>
      <point x="26" y="529" type="qcurve"/>
      <point x="18" y="613"/>
      <point x="63" y="679" type="qcurve" smooth="yes"/>
      <point x="99" y="727"/>
    </contour>
    <contour>
      <point x="233" y="661" type="qcurve" smooth="yes"/>
      <point x="211" y="654"/>
      <point x="195" y="615"/>
      <point x="191" y="582" type="qcurve" smooth="yes"/>
      <point x="191" y="559"/>
      <point x="193" y="539"/>
      <point x="205" y="505"/>
      <point x="217" y="492" type="qcurve" smooth="yes"/>
      <point x="247" y="469"/>
      <point x="291" y="487" type="qcurve"/>
      <point x="318" y="506"/>
      <point x="318" y="555" type="qcurve" smooth="yes"/>
      <point x="318" y="619"/>
      <point x="301" y="646" type="qcurve" smooth="yes"/>
      <point x="290" y="662"/>
      <point x="251" y="670"/>
    </contour>
    <contour>
      <point x="790" y="752" type="qcurve"/>
      <point x="933" y="752" type="line"/>
      <point x="866" y="669"/>
      <point x="604" y="345"/>
      <point x="397" y="92"/>
      <point x="301" y="-21" type="qcurve"/>
      <point x="159" y="-21" type="line"/>
      <point x="278" y="121"/>
      <point x="707" y="651"/>
    </contour>
    <contour>
      <point x="768" y="338" type="qcurve"/>
      <point x="844" y="343"/>
      <point x="951" y="328"/>
      <point x="997" y="296" type="qcurve" smooth="yes"/>
      <point x="1030" y="273"/>
      <point x="1064" y="194"/>
      <point x="1062" y="109"/>
      <point x="1046" y="72" type="qcurve"/>
      <point x="1026" y="37"/>
      <point x="952" y="-9"/>
      <point x="906" y="-16" type="qcurve" smooth="yes"/>
      <point x="811" y="-38"/>
      <point x="726" y="-11" type="qcurve" smooth="yes"/>
      <point x="641" y="16"/>
      <point x="609" y="83" type="qcurve"/>
      <point x="594" y="124"/>
      <point x="607" y="215"/>
      <point x="631" y="253" type="qcurve" smooth="yes"/>
      <point x="675" y="318"/>
    </contour>
    <contour>
      <point x="805" y="253" type="qcurve"/>
      <point x="768" y="233"/>
      <point x="768" y="173" type="qcurve"/>
      <point x="758" y="119"/>
      <point x="785" y="88" type="qcurve" smooth="yes"/>
      <point x="804" y="62"/>
      <point x="859" y="72" type="qcurve"/>
      <point x="891" y="86"/>
      <point x="891" y="136" type="qcurve" smooth="yes"/>
      <point x="891" y="204"/>
      <point x="874" y="231" type="qcurve" smooth="yes"/>
      <point x="867" y="247"/>
      <point x="828" y="257"/>
    </contour>
  </outline>
</glyph>
<glyph name="ampersand" format="2">
  <advance width="1042"/>
  <unicode hex="0026"/>
  <outline>
    <contour>
      <point x="265" y="699" type="qcurve" smooth="yes"/>
      <point x="358" y="727"/>
      <point x="493" y="715" type="qcurve" smooth="yes"/>
      <point x="591" y="705"/>
      <point x="646" y="651" type="qcurve" smooth="yes"/>
      <point x="673" y="628"/>
      <point x="691" y="555"/>
      <point x="683" y="518" type="qcurve" smooth="yes"/>
      <point x="675" y="470"/>
      <point x="630" y="445" type="qcurve"/>
      <point x="582" y="409"/>
      <point x="493" y="381" type="qcurve"/>
      <point x="625" y="279" type="line"/>
      <point x="635" y="314"/>
      <point x="646" y="396" type="qcurve"/>
      <point x="869" y="396" type="line"/>
      <point x="869" y="261"/>
      <point x="789" y="157" type="qcurve"/>
      <point x="894" y="76"/>
      <point x="943" y="40" type="qcurve" smooth="yes"/>
      <point x="980" y="15"/>
      <point x="1017" y="-2" type="qcurve"/>
      <point x="974" y="-2"/>
      <point x="822" y="0"/>
      <point x="700" y="0"/>
      <point x="646" y="-2" type="qcurve"/>
      <point x="667" y="21"/>
      <point x="662" y="30" type="qcurve" smooth="yes"/>
      <point x="659" y="35"/>
      <point x="654" y="41"/>
      <point x="648" y="46"/>
      <point x="643" y="44"/>
      <point x="641" y="40" type="qcurve" smooth="yes"/>
      <point x="435" y="-49"/>
      <point x="233" y="-16" type="qcurve" smooth="yes"/>
      <point x="129" y="-1"/>
      <point x="68" y="57" type="qcurve" smooth="yes"/>
      <point x="36" y="92"/>
      <point x="19" y="187"/>
      <point x="36" y="226" type="qcurve" smooth="yes"/>
      <point x="79" y="321"/>
      <point x="207" y="359" type="qcurve"/>
      <point x="138" y="407"/>
      <point x="115" y="465" type="qcurve" smooth="yes"/>
      <point x="99" y="501"/>
      <point x="108" y="582"/>
      <point x="132" y="614" type="qcurve" smooth="yes"/>
      <point x="172" y="670"/>
    </contour>
    <contour>
      <point x="343" y="582" type="qcurve" smooth="yes"/>
      <point x="328" y="563"/>
      <point x="330" y="525"/>
      <point x="343" y="508" type="qcurve" smooth="yes"/>
      <point x="349" y="494"/>
      <point x="372" y="470"/>
      <point x="404" y="445"/>
      <point x="412" y="438" type="qcurve"/>
      <point x="454" y="465"/>
      <point x="475" y="502" type="qcurve"/>
      <point x="488" y="551"/>
      <point x="470" y="577" type="qcurve" smooth="yes"/>
      <point x="454" y="603"/>
      <point x="417" y="603" type="qcurve"/>
      <point x="396" y="608"/>
      <point x="354" y="597"/>
    </contour>
    <contour>
      <point x="518" y="136" type="qcurve"/>
      <point x="311" y="279" type="line"/>
      <point x="272" y="240"/>
      <point x="280" y="179" type="qcurve"/>
      <point x="296" y="139"/>
      <point x="343" y="120" type="qcurve" smooth="yes"/>
      <point x="428" y="82"/>
    </contour>
  </outline>
</glyph>
<glyph name="four" format="2">
  <advance width="876"/>
  <unicode hex="0034"/>
  <outline>
    <contour>
      <point x="388" y="703" type="qcurve"/>
      <point x="731" y="703" type="line"/>
      <point x="731" y="314" type="line"/>
      <point x="751" y="314"/>
      <point x="831" y="314"/>
      <point x="851" y="313" type="qcurve"/>
      <point x="851" y="152" type="line"/>
      <point x="731" y="152" type="line"/>
      <point x="731" y="91" type="line" smooth="yes"/>
      <point x="733" y="29"/>
      <point x="782" y="0" type="qcurve"/>
      <point x="589" y="1"/>
      <point x="397" y="0" type="qcurve"/>
      <point x="447" y="31"/>
      <point x="447" y="91" type="qcurve" smooth="yes"/>
      <point x="447" y="91"/>
      <point x="447" y="152" type="qcurve"/>
      <point x="25" y="152" type="line"/>
      <point x="25" y="259"/>
      <point x="26" y="314" type="qcurve"/>
      <point x="202" y="502"/>
    </contour>
    <contour>
      <point x="447" y="492" type="line"/>
      <point x="276" y="314" type="line"/>
      <point x="304" y="314"/>
      <point x="418" y="314"/>
      <point x="447" y="313" type="qcurve"/>
    </contour>
  </outline>
</glyph>
<glyph name="seven" format="2">
  <advance width="771"/>
  <unicode hex="0037"/>
  <outline>
    <contour>
      <point x="25" y="460" type="qcurve"/>
      <point x="25" y="700" type="line"/>
      <point x="746" y="700" type="line"/>
      <point x="746" y="542" type="line" smooth="yes"/>
      <point x="746" y="537"/>
      <point x="741" y="531"/>
      <point x="731" y="524"/>
      <point x="729" y="522" type="qcurve" smooth="yes"/>
      <point x="531" y="357"/>
      <point x="467" y="164" type="qcurve" smooth="yes"/>
      <point x="440" y="81"/>
      <point x="440" y="1" type="qcurve"/>
      <point x="117" y="1" type="line"/>
      <point x="121" y="149"/>
      <point x="248" y="320" type="qcurve" smooth="yes"/>
      <point x="320" y="414"/>
      <point x="427" y="511" type="qcurve"/>
      <point x="121" y="511" type="line" smooth="yes"/>
      <point x="54" y="513"/>
    </contour>
  </outline>
</glyph>
<glyph name="greater" format="2">
  <advance width="602"/>
  <unicode hex="003E"/>
  <outline>
    <contour>
      <point x="25" y="502" type="qcurve"/>
      <point x="25" y="629" type="line"/>
      <point x="119" y="597"/>
      <point x="483" y="470"/>
      <point x="577" y="438" type="qcurve"/>
      <point x="577" y="296" type="line"/>
      <point x="512" y="273"/>
      <point x="292" y="196"/>
      <point x="108" y="132"/>
      <point x="25" y="104" type="qcurve"/>
      <point x="25" y="231" type="line"/>
      <point x="94" y="252"/>
      <point x="365" y="342"/>
      <point x="434" y="364" type="qcurve"/>
      <point x="168" y="458"/>
    </contour>
  </outline>
</glyph>
<glyph name="question" format="2">
  <advance width="555"/>
  <unicode hex="003F"/>
  <outline>
    <contour>
      <point x="25" y="487" type="qcurve"/>
      <point x="25" y="651" type="line"/>
      <point x="148" y="727"/>
      <point x="320" y="715" type="qcurve" smooth="yes"/>
      <point x="444" y="704"/>
      <point x="492" y="651" type="qcurve" smooth="yes"/>
      <point x="527" y="616"/>
      <point x="533" y="508"/>
      <point x="507" y="465" type="qcurve" smooth="yes"/>
      <point x="493" y="436"/>
      <point x="451" y="384"/>
      <point x="394" y="325"/>
      <point x="379" y="306" type="qcurve" smooth="yes"/>
      <point x="347" y="257"/>
      <point x="347" y="231" type="qcurve"/>
      <point x="132" y="231" type="line"/>
      <point x="132" y="261"/>
      <point x="151" y="301" type="qcurve" smooth="yes"/>
      <point x="167" y="328"/>
      <point x="252" y="418"/>
      <point x="268" y="445" type="qcurve" smooth="yes"/>
      <point x="282" y="462"/>
      <point x="289" y="502"/>
      <point x="278" y="524" type="qcurve" smooth="yes"/>
      <point x="263" y="560"/>
      <point x="199" y="560" type="qcurve" smooth="yes"/>
      <point x="105" y="560"/>
    </contour>
    <contour>
      <point x="188" y="152" type="qcurve" smooth="yes"/>
      <point x="258" y="161"/>
      <point x="305" y="147" type="qcurve"/>
      <point x="353" y="141"/>
      <point x="364" y="88" type="qcurve" smooth="yes"/>
      <point x="368" y="62"/>
      <point x="356" y="11"/>
      <point x="337" y="-2" type="qcurve" smooth="yes"/>
      <point x="322" y="-11"/>
      <point x="283" y="-20"/>
      <point x="256" y="-21"/>
      <point x="231" y="-21" type="qcurve" smooth="yes"/>
      <point x="209" y="-21"/>
      <point x="185" y="-19"/>
      <point x="151" y="-8"/>
      <point x="141" y="3" type="qcurve" smooth="yes"/>
      <point x="104" y="40"/>
      <point x="126" y="99" type="qcurve" smooth="yes"/>
      <point x="131" y="119"/>
      <point x="165" y="148"/>
    </contour>
    <contour>
      <point x="25" y="487" type="qcurve"/>
      <point x="25" y="651" type="line"/>
      <point x="148" y="727"/>
      <point x="320" y="715" type="qcurve" smooth="yes"/>
      <point x="444" y="704"/>
      <point x="492" y="651" type="qcurve" smooth="yes"/>
      <point x="527" y="616"/>
      <point x="533" y="508"/>
      <point x="507" y="465" type="qcurve" smooth="yes"/>
      <point x="493" y="436"/>
      <point x="451" y="384"/>
      <point x="394" y="325"/>
      <point x="379" y="306" type="qcurve" smooth="yes"/>
      <point x="347" y="257"/>
      <point x="347" y="231" type="qcurve"/>
      <point x="132" y="231" type="line"/>
      <point x="132" y="261"/>
      <point x="151" y="301" type="qcurve" smooth="yes"/>
      <point x="167" y="328"/>
      <point x="252" y="418"/>
      <point x="268" y="445" type="qcurve" smooth="yes"/>
      <point x="282" y="462"/>
      <point x="289" y="502"/>
      <point x="278" y="524" type="qcurve" smooth="yes"/>
      <point x="263" y="560"/>
      <point x="199" y="560" type="qcurve" smooth="yes"/>
      <point x="105" y="560"/>
    </contour>
    <contour>
      <point x="188" y="152" type="qcurve" smooth="yes"/>
      <point x="258" y="161"/>
      <point x="305" y="147" type="qcurve"/>
      <point x="353" y="141"/>
      <point x="364" y="88" type="qcurve" smooth="yes"/>
      <point x="368" y="62"/>
      <point x="356" y="11"/>
      <point x="337" y="-2" type="qcurve" smooth="yes"/>
      <point x="322" y="-11"/>
      <point x="283" y="-20"/>
      <point x="256" y="-21"/>
      <point x="231" y="-21" type="qcurve" smooth="yes"/>
      <point x="209" y="-21"/>
      <point x="185" y="-19"/>
      <point x="151" y="-8"/>
      <point x="141" y="3" type="qcurve" smooth="yes"/>
      <point x="104" y="40"/>
      <point x="126" y="99" type="qcurve" smooth="yes"/>
      <point x="131" y="119"/>
      <point x="165" y="148"/>
    </contour>
    <contour>
      <point x="25" y="487" type="qcurve"/>
      <point x="25" y="651" type="line"/>
      <point x="148" y="727"/>
      <point x="320" y="715" type="qcurve" smooth="yes"/>
      <point x="444" y="704"/>
      <point x="492" y="651" type="qcurve" smooth="yes"/>
      <point x="527" y="616"/>
      <point x="533" y="508"/>
      <point x="507" y="465" type="qcurve" smooth="yes"/>
      <point x="493" y="436"/>
      <point x="451" y="384"/>
      <point x="394" y="325"/>
      <point x="379" y="306" type="qcurve" smooth="yes"/>
      <point x="347" y="257"/>
      <point x="347" y="231" type="qcurve"/>
      <point x="132" y="231" type="line"/>
      <point x="132" y="261"/>
      <point x="151" y="301" type="qcurve" smooth="yes"/>
      <point x="167" y="328"/>
      <point x="252" y="418"/>
      <point x="268" y="445" type="qcurve" smooth="yes"/>
      <point x="282" y="462"/>
      <point x="289" y="502"/>
      <point x="278" y="524" type="qcurve" smooth="yes"/>
      <point x="263" y="560"/>
      <point x="199" y="560" type="qcurve" smooth="yes"/>
      <point x="105" y="560"/>
    </contour>
    <contour>
      <point x="188" y="152" type="qcurve" smooth="yes"/>
      <point x="258" y="161"/>
      <point x="305" y="147" type="qcurve"/>
      <point x="353" y="141"/>
      <point x="364" y="88" type="qcurve" smooth="yes"/>
      <point x="368" y="62"/>
      <point x="356" y="11"/>
      <point x="337" y="-2" type="qcurve" smooth="yes"/>
      <point x="322" y="-11"/>
      <point x="283" y="-20"/>
      <point x="256" y="-21"/>
      <point x="231" y="-21" type="qcurve" smooth="yes"/>
      <point x="209" y="-21"/>
      <point x="185" y="-19"/>
      <point x="151" y="-8"/>
      <point x="141" y="3" type="qcurve" smooth="yes"/>
      <point x="104" y="40"/>
      <point x="126" y="99" type="qcurve" smooth="yes"/>
      <point x="131" y="119"/>
      <point x="165" y="148"/>
    </contour>
  </outline>
</glyph>
<glyph name="B" format="2">
  <advance width="949"/>
  <unicode hex="0042"/>
  <outline>
    <contour>
      <point x="25" y="700" type="qcurve"/>
      <point x="128" y="700"/>
      <point x="533" y="700"/>
      <point x="635" y="699" type="qcurve" smooth="yes"/>
      <point x="701" y="696"/>
      <point x="799" y="675"/>
      <point x="837" y="645" type="qcurve" smooth="yes"/>
      <point x="882" y="612"/>
      <point x="893" y="488"/>
      <point x="858" y="444" type="qcurve" smooth="yes"/>
      <point x="823" y="399"/>
      <point x="749" y="380" type="qcurve" smooth="yes"/>
      <point x="746" y="379"/>
      <point x="731" y="377"/>
      <point x="720" y="373"/>
      <point x="715" y="370" type="qcurve"/>
      <point x="774" y="362"/>
      <point x="860" y="332"/>
      <point x="889" y="298" type="qcurve" smooth="yes"/>
      <point x="932" y="247"/>
      <point x="912" y="105"/>
      <point x="860" y="64" type="qcurve" smooth="yes"/>
      <point x="779" y="0"/>
      <point x="623" y="0" type="qcurve" smooth="yes"/>
      <point x="25" y="0" type="line"/>
      <point x="48" y="14"/>
      <point x="75" y="63"/>
      <point x="75" y="90" type="qcurve" smooth="yes"/>
      <point x="75" y="90"/>
      <point x="75" y="606" type="qcurve" smooth="yes"/>
      <point x="76" y="634"/>
      <point x="49" y="685"/>
    </contour>
    <contour>
      <point x="356" y="553" type="qcurve"/>
      <point x="356" y="401" type="line"/>
      <point x="500" y="401" type="line" smooth="yes"/>
      <point x="502" y="401"/>
      <point x="521" y="402"/>
      <point x="527" y="402"/>
      <point x="544" y="403"/>
      <point x="551" y="404"/>
      <point x="566" y="407"/>
      <point x="575" y="411"/>
      <point x="586" y="417"/>
      <point x="591" y="420" type="qcurve" smooth="yes"/>
      <point x="612" y="433"/>
      <point x="621" y="493"/>
      <point x="610" y="514" type="qcurve" smooth="yes"/>
      <point x="600" y="533"/>
      <point x="561" y="548"/>
      <point x="532" y="551" type="qcurve" smooth="yes"/>
      <point x="498" y="553"/>
      <point x="371" y="553"/>
    </contour>
    <contour>
      <point x="356" y="299" type="qcurve"/>
      <point x="356" y="128" type="line"/>
      <point x="465" y="128"/>
      <point x="521" y="127" type="qcurve" smooth="yes"/>
      <point x="582" y="127"/>
      <point x="612" y="149" type="qcurve" smooth="yes"/>
      <point x="635" y="168"/>
      <point x="644" y="233"/>
      <point x="630" y="258" type="qcurve" smooth="yes"/>
      <point x="612" y="293"/>
      <point x="543" y="299" type="qcurve"/>
      <point x="543" y="299"/>
    </contour>
  </outline>
</glyph>
<glyph name="D" format="2">
  <advance width="980"/>
  <unicode hex="0044"/>
  <outline>
    <contour>
      <point x="25" y="699" type="qcurve"/>
      <point x="80" y="699"/>
      <point x="463" y="700"/>
      <point x="518" y="698" type="qcurve" smooth="yes"/>
      <point x="711" y="692"/>
      <point x="820" y="629" type="qcurve" smooth="yes"/>
      <point x="868" y="601"/>
      <point x="934" y="510"/>
      <point x="945" y="456" type="qcurve" smooth="yes"/>
      <point x="980" y="283"/>
      <point x="896" y="166" type="qcurve" smooth="yes"/>
      <point x="830" y="68"/>
      <point x="693" y="29" type="qcurve" smooth="yes"/>
      <point x="593" y="-2"/>
      <point x="414" y="0" type="qcurve" smooth="yes"/>
      <point x="25" y="0" type="line"/>
      <point x="48" y="14"/>
      <point x="75" y="63"/>
      <point x="75" y="90" type="qcurve" smooth="yes"/>
      <point x="75" y="605" type="line" smooth="yes"/>
      <point x="75" y="633"/>
      <point x="48" y="685"/>
    </contour>
    <contour>
      <point x="357" y="552" type="qcurve"/>
      <point x="358" y="484"/>
      <point x="358" y="210"/>
      <point x="358" y="141" type="qcurve"/>
      <point x="489" y="141"/>
      <point x="489" y="141" type="qcurve" smooth="yes"/>
      <point x="564" y="143"/>
      <point x="606" y="180" type="qcurve" smooth="yes"/>
      <point x="655" y="219"/>
      <point x="664" y="308" type="qcurve" smooth="yes"/>
      <point x="674" y="419"/>
      <point x="641" y="477" type="qcurve" smooth="yes"/>
      <point x="625" y="506"/>
      <point x="563" y="542"/>
      <point x="527" y="548" type="qcurve" smooth="yes"/>
      <point x="502" y="552"/>
      <point x="446" y="553"/>
      <point x="375" y="552"/>
    </contour>
  </outline>
</glyph>
<glyph name="underscore" format="2">
  <advance width="629"/>
  <unicode hex="005F"/>
  <outline>
    <contour>
      <point x="25" y="-150" type="line"/>
      <point x="25" y="-85" type="line"/>
      <point x="604" y="-85" type="line"/>
      <point x="604" y="-150" type="line"/>
      <point x="25" y="-150" type="line"/>
      <point x="25" y="-85" type="line"/>
      <point x="604" y="-85" type="line"/>
      <point x="604" y="-150" type="line"/>
      <point x="25" y="-150" type="line"/>
      <point x="25" y="-85" type="line"/>
      <point x="604" y="-85" type="line"/>
      <point x="604" y="-150" type="line"/>
    </contour>
  </outline>
</glyph>
<glyph name="exclamdown" format="2">
  <advance width="223"/>
  <unicode hex="00A1"/>
  <outline>
    <contour>
      <point x="30" y="0" type="line"/>
      <point x="43" y="465" type="line"/>
      <point x="180" y="465" type="line"/>
      <point x="193" y="0" type="line"/>
    </contour>
    <contour>
      <point x="198" y="621" type="qcurve" smooth="yes"/>
      <point x="198" y="604"/>
      <point x="184" y="573"/>
      <point x="160" y="549"/>
      <point x="128" y="535"/>
      <point x="111" y="535" type="qcurve" smooth="yes"/>
      <point x="94" y="535"/>
      <point x="63" y="549"/>
      <point x="39" y="573"/>
      <point x="25" y="604"/>
      <point x="25" y="621" type="qcurve" smooth="yes"/>
      <point x="25" y="638"/>
      <point x="39" y="669"/>
      <point x="63" y="693"/>
      <point x="94" y="707"/>
      <point x="111" y="707" type="qcurve" smooth="yes"/>
      <point x="128" y="707"/>
      <point x="160" y="693"/>
      <point x="184" y="669"/>
      <point x="198" y="638"/>
    </contour>
  </outline>
</glyph>
<glyph name="sterling" format="2">
  <advance width="494"/>
  <unicode hex="00A3"/>
  <outline>
    <contour>
      <point x="257" y="242" type="line"/>
      <point x="255" y="218"/>
      <point x="246" y="172"/>
      <point x="237" y="149" type="qcurve"/>
      <point x="469" y="149" type="line"/>
      <point x="469" y="0" type="line"/>
      <point x="37" y="0" type="line"/>
      <point x="37" y="149" type="line"/>
      <point x="46" y="149" type="line" smooth="yes"/>
      <point x="67" y="149"/>
      <point x="93" y="159"/>
      <point x="105" y="182"/>
      <point x="106" y="217"/>
      <point x="104" y="242" type="qcurve"/>
      <point x="25" y="242" type="line"/>
      <point x="25" y="392" type="line"/>
      <point x="89" y="392" type="line"/>
      <point x="86" y="437"/>
      <point x="86" y="490" type="qcurve" smooth="yes"/>
      <point x="86" y="530"/>
      <point x="112" y="595"/>
      <point x="158" y="641"/>
      <point x="222" y="667"/>
      <point x="260" y="667" type="qcurve" smooth="yes"/>
      <point x="292" y="667"/>
      <point x="347" y="660"/>
      <point x="397" y="643"/>
      <point x="443" y="613"/>
      <point x="466" y="589" type="qcurve"/>
      <point x="380" y="489" type="line"/>
      <point x="366" y="500"/>
      <point x="329" y="517"/>
      <point x="302" y="517" type="qcurve" smooth="yes"/>
      <point x="273" y="517"/>
      <point x="241" y="496"/>
      <point x="241" y="470" type="qcurve" smooth="yes"/>
      <point x="241" y="453"/>
      <point x="245" y="414"/>
      <point x="248" y="392" type="qcurve"/>
      <point x="378" y="392" type="line"/>
      <point x="378" y="242" type="line"/>
    </contour>
  </outline>
</glyph>
<glyph name="registered" format="2">
  <advance width="750"/>
  <unicode hex="00AE"/>
  <outline>
    <contour>
      <point x="375" y="709" type="qcurve" smooth="yes"/>
      <point x="452" y="709"/>
      <point x="581" y="649"/>
      <point x="674" y="549"/>
      <point x="725" y="422"/>
      <point x="725" y="355" type="qcurve" smooth="yes"/>
      <point x="725" y="287"/>
      <point x="674" y="160"/>
      <point x="581" y="60"/>
      <point x="452" y="0"/>
      <point x="375" y="0" type="qcurve" smooth="yes"/>
      <point x="298" y="0"/>
      <point x="168" y="60"/>
      <point x="76" y="160"/>
      <point x="25" y="287"/>
      <point x="25" y="355" type="qcurve" smooth="yes"/>
      <point x="25" y="422"/>
      <point x="76" y="549"/>
      <point x="168" y="649"/>
      <point x="298" y="709"/>
    </contour>
    <contour>
      <point x="378" y="276" type="line"/>
      <point x="361" y="276" type="line"/>
      <point x="361" y="199" type="line"/>
      <point x="251" y="199" type="line"/>
      <point x="251" y="527" type="line"/>
      <point x="378" y="527" type="line" smooth="yes"/>
      <point x="419" y="527"/>
      <point x="477" y="506"/>
      <point x="516" y="470"/>
      <point x="534" y="425"/>
      <point x="534" y="401" type="qcurve" smooth="yes"/>
      <point x="534" y="371"/>
      <point x="505" y="321"/>
      <point x="481" y="305" type="qcurve"/>
      <point x="540" y="211" type="line"/>
      <point x="561" y="241"/>
      <point x="585" y="313"/>
      <point x="585" y="355" type="qcurve" smooth="yes"/>
      <point x="585" y="404"/>
      <point x="555" y="489"/>
      <point x="499" y="551"/>
      <point x="422" y="587"/>
      <point x="375" y="587" type="qcurve" smooth="yes"/>
      <point x="331" y="587"/>
      <point x="255" y="550"/>
      <point x="197" y="487"/>
      <point x="165" y="403"/>
      <point x="165" y="355" type="qcurve" smooth="yes"/>
      <point x="165" y="307"/>
      <point x="197" y="222"/>
      <point x="255" y="159"/>
      <point x="331" y="122"/>
      <point x="375" y="122" type="qcurve" smooth="yes"/>
      <point x="422" y="122"/>
      <point x="502" y="163"/>
      <point x="531" y="199" type="qcurve"/>
      <point x="436" y="199" type="line"/>
      <point x="386" y="276" type="line"/>
    </contour>
    <contour>
      <point x="423" y="403" type="qcurve" smooth="yes"/>
      <point x="423" y="417"/>
      <point x="401" y="428"/>
      <point x="378" y="428" type="qcurve" smooth="yes"/>
      <point x="361" y="428" type="line"/>
      <point x="361" y="374" type="line"/>
      <point x="373" y="374" type="line" smooth="yes"/>
      <point x="400" y="374"/>
      <point x="423" y="388"/>
    </contour>
  </outline>
</glyph>
<glyph name="Icircumflex" format="2">
  <advance width="433"/>
  <unicode hex="00CE"/>
  <outline>
    <contour>
      <point x="171" y="948" type="qcurve"/>
      <point x="174" y="948" type="line"/>
      <point x="255" y="948" type="line"/>
      <point x="399" y="751" type="line"/>
      <point x="297" y="751" type="line"/>
      <point x="284" y="769"/>
      <point x="228" y="847"/>
      <point x="213" y="867" type="qcurve"/>
      <point x="203" y="854"/>
      <point x="146" y="774"/>
      <point x="128" y="751" type="qcurve"/>
      <point x="31" y="751" type="line"/>
      <point x="51" y="780"/>
      <point x="146" y="911"/>
      <point x="171" y="948" type="qcurve"/>
      <point x="174" y="948" type="line"/>
      <point x="255" y="948" type="line"/>
      <point x="399" y="751" type="line"/>
      <point x="297" y="751" type="line"/>
      <point x="284" y="769"/>
      <point x="228" y="847"/>
      <point x="213" y="867" type="qcurve"/>
      <point x="203" y="854"/>
      <point x="146" y="774"/>
      <point x="128" y="751" type="qcurve"/>
      <point x="31" y="751" type="line"/>
      <point x="51" y="780"/>
      <point x="146" y="911"/>
      <point x="171" y="948" type="qcurve"/>
      <point x="174" y="948" type="line"/>
      <point x="255" y="948" type="line"/>
      <point x="399" y="751" type="line"/>
      <point x="297" y="751" type="line"/>
      <point x="284" y="769"/>
      <point x="228" y="847"/>
      <point x="213" y="867" type="qcurve"/>
      <point x="203" y="854"/>
      <point x="146" y="774"/>
      <point x="128" y="751" type="qcurve"/>
      <point x="31" y="751" type="line"/>
      <point x="51" y="780"/>
      <point x="146" y="911"/>
    </contour>
    <contour>
      <point x="25" y="700" type="qcurve"/>
      <point x="408" y="700" type="line"/>
      <point x="384" y="686"/>
      <point x="357" y="634"/>
      <point x="358" y="606" type="qcurve" smooth="yes"/>
      <point x="358" y="95" type="line" smooth="yes"/>
      <point x="357" y="65"/>
      <point x="384" y="13"/>
      <point x="408" y="-1" type="qcurve"/>
      <point x="25" y="-1"/>
      <point x="25" y="-1" type="qcurve"/>
      <point x="75" y="30"/>
      <point x="75" y="90" type="qcurve" smooth="yes"/>
      <point x="75" y="605" type="line" smooth="yes"/>
      <point x="76" y="634"/>
      <point x="49" y="686"/>
    </contour>
  </outline>
</glyph>
<glyph name="iacute" format="2">
  <advance width="506"/>
  <unicode hex="00ED"/>
  <outline>
    <contour>
      <point x="481" y="948" type="qcurve"/>
      <point x="175" y="948" type="line"/>
      <point x="173" y="940"/>
      <point x="163" y="912"/>
      <point x="160" y="904" type="qcurve" smooth="yes"/>
      <point x="72" y="750" type="line"/>
      <point x="250" y="750" type="line"/>
      <point x="297" y="788"/>
      <point x="461" y="931"/>
      <point x="481" y="948" type="qcurve"/>
      <point x="175" y="948" type="line"/>
      <point x="173" y="940"/>
      <point x="163" y="912"/>
      <point x="160" y="904" type="qcurve" smooth="yes"/>
      <point x="72" y="750" type="line"/>
      <point x="250" y="750" type="line"/>
      <point x="297" y="788"/>
      <point x="461" y="931"/>
      <point x="481" y="948" type="qcurve"/>
      <point x="175" y="948" type="line"/>
      <point x="173" y="940"/>
      <point x="163" y="912"/>
      <point x="160" y="904" type="qcurve" smooth="yes"/>
      <point x="72" y="750" type="line"/>
      <point x="250" y="750" type="line"/>
      <point x="297" y="788"/>
      <point x="461" y="931"/>
    </contour>
    <contour>
      <point x="25" y="700" type="qcurve"/>
      <point x="408" y="700" type="line"/>
      <point x="384" y="686"/>
      <point x="357" y="634"/>
      <point x="358" y="606" type="qcurve" smooth="yes"/>
      <point x="358" y="95" type="line" smooth="yes"/>
      <point x="357" y="65"/>
      <point x="384" y="13"/>
      <point x="408" y="-1" type="qcurve"/>
      <point x="25" y="-1"/>
      <point x="25" y="-1" type="qcurve"/>
      <point x="75" y="30"/>
      <point x="75" y="90" type="qcurve" smooth="yes"/>
      <point x="75" y="605" type="line" smooth="yes"/>
      <point x="76" y="634"/>
      <point x="49" y="686"/>
    </contour>
  </outline>
</glyph>
<glyph name="oslash" format="2">
  <advance width="1040"/>
  <unicode hex="00F8"/>
  <outline>
    <contour>
      <point x="763" y="826" type="qcurve"/>
      <point x="1015" y="826" type="line"/>
      <point x="713" y="443"/>
      <point x="713" y="443" type="qcurve"/>
      <point x="496" y="155"/>
      <point x="281" y="-132" type="qcurve"/>
      <point x="25" y="-132" type="line"/>
      <point x="394" y="347"/>
      <point x="763" y="826" type="qcurve"/>
      <point x="1015" y="826" type="line"/>
      <point x="713" y="443"/>
      <point x="713" y="443" type="qcurve"/>
      <point x="496" y="155"/>
      <point x="281" y="-132" type="qcurve"/>
      <point x="25" y="-132" type="line"/>
      <point x="394" y="347"/>
      <point x="763" y="826" type="qcurve"/>
      <point x="1015" y="826" type="line"/>
      <point x="713" y="443"/>
      <point x="713" y="443" type="qcurve"/>
      <point x="496" y="155"/>
      <point x="281" y="-132" type="qcurve"/>
      <point x="25" y="-132" type="line"/>
      <point x="394" y="347"/>
    </contour>
    <contour>
      <point x="422" y="712" type="qcurve" smooth="yes"/>
      <point x="624" y="728"/>
      <point x="763" y="684" type="qcurve" smooth="yes"/>
      <point x="898" y="642"/>
      <point x="957" y="537" type="qcurve" smooth="yes"/>
      <point x="1021" y="425"/>
      <point x="998" y="260" type="qcurve" smooth="yes"/>
      <point x="988" y="196"/>
      <point x="922" y="88"/>
      <point x="869" y="55" type="qcurve" smooth="yes"/>
      <point x="754" y="-18"/>
      <point x="546" y="-24" type="qcurve" smooth="yes"/>
      <point x="446" y="-24"/>
      <point x="286" y="-3"/>
      <point x="215" y="28" type="qcurve" smooth="yes"/>
      <point x="162" y="52"/>
      <point x="83" y="133"/>
      <point x="63" y="186" type="qcurve" smooth="yes"/>
      <point x="30" y="277"/>
      <point x="42" y="403" type="qcurve" smooth="yes"/>
      <point x="56" y="540"/>
      <point x="145" y="614" type="qcurve" smooth="yes"/>
      <point x="241" y="697"/>
    </contour>
    <contour>
      <point x="485" y="563" type="qcurve" smooth="yes"/>
      <point x="421" y="551"/>
      <point x="392" y="499" type="qcurve" smooth="yes"/>
      <point x="371" y="462"/>
      <point x="359" y="376"/>
      <point x="360" y="319" type="qcurve" smooth="yes"/>
      <point x="362" y="286"/>
      <point x="368" y="244"/>
      <point x="387" y="189"/>
      <point x="403" y="170" type="qcurve" smooth="yes"/>
      <point x="447" y="123"/>
      <point x="541" y="129" type="qcurve" smooth="yes"/>
      <point x="620" y="135"/>
      <point x="651" y="187" type="qcurve" smooth="yes"/>
      <point x="672" y="222"/>
      <point x="683" y="304"/>
      <point x="682" y="361" type="qcurve" smooth="yes"/>
      <point x="679" y="415"/>
      <point x="660" y="493"/>
      <point x="634" y="523" type="qcurve" smooth="yes"/>
      <point x="609" y="552"/>
      <point x="528" y="570"/>
    </contour>
    <contour>
      <point x="519" y="454" type="line"/>
      <point x="606" y="338" type="line"/>
      <point x="601" y="331"/>
      <point x="562" y="279" type="qcurve" smooth="yes"/>
      <point x="532" y="239" type="line"/>
      <point x="519" y="222" type="line"/>
      <point x="519" y="222"/>
      <point x="513" y="229" type="qcurve" smooth="yes"/>
      <point x="506" y="237"/>
      <point x="485" y="265"/>
      <point x="475" y="279" type="qcurve" smooth="yes"/>
      <point x="431" y="338" type="line"/>
    </contour>
  </outline>
</glyph>
<glyph name="Amacron" format="2">
  <advance width="1134"/>
  <unicode hex="0100"/>
  <outline>
    <contour>
      <point x="807" y="751" type="line"/>
      <point x="272" y="751" type="line"/>
      <point x="272" y="931" type="line"/>
      <point x="807" y="931" type="line"/>
    </contour>
    <contour>
      <point x="664" y="274" type="line"/>
      <point x="566" y="455" type="line"/>
      <point x="460" y="255" type="line"/>
    </contour>
    <contour>
      <point x="386" y="120" type="line"/>
      <point x="385" y="118" type="line" smooth="yes"/>
      <point x="365" y="77"/>
      <point x="365" y="50" type="qcurve" smooth="yes"/>
      <point x="365" y="14"/>
      <point x="384" y="0" type="qcurve"/>
      <point x="25" y="0" type="line"/>
      <point x="89" y="53"/>
      <point x="159" y="187" type="qcurve" smooth="yes"/>
      <point x="380" y="597" type="line" smooth="yes"/>
      <point x="400" y="638"/>
      <point x="400" y="652" type="qcurve" smooth="yes"/>
      <point x="400" y="683"/>
      <point x="381" y="700" type="qcurve"/>
      <point x="700" y="700" type="line"/>
      <point x="975" y="187" type="line" smooth="yes"/>
      <point x="1045" y="53"/>
      <point x="1109" y="0" type="qcurve"/>
      <point x="750" y="0" type="line"/>
      <point x="769" y="14"/>
      <point x="769" y="50" type="qcurve" smooth="yes"/>
      <point x="769" y="80"/>
      <point x="748" y="118" type="qcurve" smooth="yes"/>
      <point x="730" y="151" type="line"/>
    </contour>
  </outline>
</glyph>
<glyph name="Cdotaccent" format="2">
  <advance width="914"/>
  <unicode hex="010A"/>
  <outline>
    <contour>
      <point x="454" y="750" type="qcurve" smooth="yes"/>
      <point x="404" y="750"/>
      <point x="340" y="803"/>
      <point x="340" y="849" type="qcurve" smooth="yes"/>
      <point x="340" y="871"/>
      <point x="356" y="907"/>
      <point x="384" y="934"/>
      <point x="426" y="949"/>
      <point x="454" y="949" type="qcurve" smooth="yes"/>
      <point x="508" y="949"/>
      <point x="567" y="893"/>
      <point x="567" y="849" type="qcurve" smooth="yes"/>
      <point x="567" y="827"/>
      <point x="549" y="790"/>
      <point x="518" y="764"/>
      <point x="477" y="750"/>
    </contour>
    <contour>
      <point x="186" y="634" type="qcurve" smooth="yes"/>
      <point x="311" y="709"/>
      <point x="517" y="718" type="qcurve" smooth="yes"/>
      <point x="719" y="725"/>
      <point x="877" y="666" type="qcurve"/>
      <point x="877" y="440" type="line"/>
      <point x="760" y="524"/>
      <point x="629" y="535" type="qcurve" smooth="yes"/>
      <point x="503" y="544"/>
      <point x="431" y="506" type="qcurve" smooth="yes"/>
      <point x="398" y="488"/>
      <point x="354" y="429"/>
      <point x="349" y="394" type="qcurve" smooth="yes"/>
      <point x="343" y="347"/>
      <point x="367" y="258"/>
      <point x="399" y="227" type="qcurve" smooth="yes"/>
      <point x="452" y="175"/>
      <point x="565" y="166" type="qcurve" smooth="yes"/>
      <point x="654" y="158"/>
      <point x="822" y="204"/>
      <point x="889" y="259" type="qcurve"/>
      <point x="889" y="42" type="line"/>
      <point x="828" y="10"/>
      <point x="691" y="-16"/>
      <point x="597" y="-23" type="qcurve" smooth="yes"/>
      <point x="380" y="-30"/>
      <point x="243" y="22" type="qcurve" smooth="yes"/>
      <point x="109" y="75"/>
      <point x="58" y="183" type="qcurve" smooth="yes"/>
      <point x="5" y="297"/>
      <point x="36" y="436" type="qcurve" smooth="yes"/>
      <point x="50" y="498"/>
      <point x="130" y="601"/>
    </contour>
  </outline>
</glyph>
<glyph name="Ecaron" format="2">
  <advance width="839"/>
  <unicode hex="011A"/>
  <outline>
    <contour>
      <point x="378" y="750" type="qcurve"/>
      <point x="381" y="750" type="line"/>
      <point x="462" y="750" type="line"/>
      <point x="605" y="947" type="line"/>
      <point x="504" y="947" type="line"/>
      <point x="491" y="929"/>
      <point x="435" y="851"/>
      <point x="420" y="830" type="qcurve"/>
      <point x="410" y="843"/>
      <point x="352" y="924"/>
      <point x="335" y="947" type="qcurve"/>
      <point x="238" y="947" type="line"/>
      <point x="258" y="918"/>
      <point x="352" y="786"/>
      <point x="378" y="750" type="qcurve"/>
      <point x="381" y="750" type="line"/>
      <point x="462" y="750" type="line"/>
      <point x="605" y="947" type="line"/>
      <point x="504" y="947" type="line"/>
      <point x="491" y="929"/>
      <point x="435" y="851"/>
      <point x="420" y="830" type="qcurve"/>
      <point x="410" y="843"/>
      <point x="352" y="924"/>
      <point x="335" y="947" type="qcurve"/>
      <point x="238" y="947" type="line"/>
      <point x="258" y="918"/>
      <point x="352" y="786"/>
      <point x="378" y="750" type="qcurve"/>
      <point x="381" y="750" type="line"/>
      <point x="462" y="750" type="line"/>
      <point x="605" y="947" type="line"/>
      <point x="504" y="947" type="line"/>
      <point x="491" y="929"/>
      <point x="435" y="851"/>
      <point x="420" y="830" type="qcurve"/>
      <point x="410" y="843"/>
      <point x="352" y="924"/>
      <point x="335" y="947" type="qcurve"/>
      <point x="238" y="947" type="line"/>
      <point x="258" y="918"/>
      <point x="352" y="786"/>
    </contour>
    <contour>
      <point x="25" y="701" type="qcurve"/>
      <point x="285" y="700"/>
      <point x="801" y="700" type="qcurve"/>
      <point x="802" y="664"/>
      <point x="802" y="526"/>
      <point x="802" y="490" type="qcurve"/>
      <point x="769" y="532"/>
      <point x="707" y="532" type="qcurve" smooth="yes"/>
      <point x="358" y="532" type="line"/>
      <point x="358" y="431" type="line"/>
      <point x="722" y="431" type="line"/>
      <point x="722" y="282" type="line"/>
      <point x="358" y="282" type="line"/>
      <point x="358" y="167" type="line"/>
      <point x="412" y="168"/>
      <point x="627" y="168"/>
      <point x="681" y="168" type="qcurve" smooth="yes"/>
      <point x="734" y="168"/>
      <point x="751" y="174" type="qcurve" smooth="yes"/>
      <point x="798" y="193"/>
      <point x="814" y="230" type="qcurve"/>
      <point x="814" y="0" type="line"/>
      <point x="25" y="0" type="line"/>
      <point x="75" y="31"/>
      <point x="75" y="91" type="qcurve" smooth="yes"/>
      <point x="75" y="606" type="line" smooth="yes"/>
      <point x="76" y="634"/>
      <point x="49" y="686"/>
    </contour>
  </outline>
</glyph>
<glyph name="Gcircumflex" format="2">
  <advance width="979"/>
  <unicode hex="011C"/>
  <outline>
    <contour>
      <point x="436" y="947" type="qcurve"/>
      <point x="439" y="947" type="line"/>
      <point x="520" y="947" type="line"/>
      <point x="664" y="750" type="line"/>
      <point x="562" y="750" type="line"/>
      <point x="549" y="768"/>
      <point x="493" y="846"/>
      <point x="478" y="866" type="qcurve"/>
      <point x="468" y="853"/>
      <point x="411" y="773"/>
      <point x="394" y="750" type="qcurve"/>
      <point x="296" y="750" type="line"/>
      <point x="316" y="779"/>
      <point x="411" y="910"/>
      <point x="436" y="947" type="qcurve"/>
      <point x="439" y="947" type="line"/>
      <point x="520" y="947" type="line"/>
      <point x="664" y="750" type="line"/>
      <point x="562" y="750" type="line"/>
      <point x="549" y="768"/>
      <point x="493" y="846"/>
      <point x="478" y="866" type="qcurve"/>
      <point x="468" y="853"/>
      <point x="411" y="773"/>
      <point x="394" y="750" type="qcurve"/>
      <point x="296" y="750" type="line"/>
      <point x="316" y="779"/>
      <point x="411" y="910"/>
      <point x="436" y="947" type="qcurve"/>
      <point x="439" y="947" type="line"/>
      <point x="520" y="947" type="line"/>
      <point x="664" y="750" type="line"/>
      <point x="562" y="750" type="line"/>
      <point x="549" y="768"/>
      <point x="493" y="846"/>
      <point x="478" y="866" type="qcurve"/>
      <point x="468" y="853"/>
      <point x="411" y="773"/>
      <point x="394" y="750" type="qcurve"/>
      <point x="296" y="750" type="line"/>
      <point x="316" y="779"/>
      <point x="411" y="910"/>
    </contour>
    <contour>
      <point x="443" y="713" type="qcurve" smooth="yes"/>
      <point x="573" y="726"/>
      <point x="720" y="705" type="qcurve" smooth="yes"/>
      <point x="813" y="692"/>
      <point x="877" y="665" type="qcurve"/>
      <point x="877" y="440" type="line"/>
      <point x="804" y="491"/>
      <point x="732" y="514" type="qcurve" smooth="yes"/>
      <point x="643" y="542"/>
      <point x="538" y="537" type="qcurve" smooth="yes"/>
      <point x="448" y="530"/>
      <point x="400" y="487" type="qcurve" smooth="yes"/>
      <point x="354" y="448"/>
      <point x="349" y="373" type="qcurve" smooth="yes"/>
      <point x="343" y="291"/>
      <point x="391" y="230" type="qcurve" smooth="yes"/>
      <point x="423" y="189"/>
      <point x="521" y="144"/>
      <point x="576" y="142" type="qcurve" smooth="yes"/>
      <point x="638" y="140"/>
      <point x="682" y="149" type="qcurve"/>
      <point x="682" y="266"/>
      <point x="682" y="266" type="qcurve" smooth="yes"/>
      <point x="680" y="327"/>
      <point x="644" y="349" type="qcurve"/>
      <point x="798" y="348"/>
      <point x="954" y="349" type="qcurve"/>
      <point x="944" y="338"/>
      <point x="934" y="307"/>
      <point x="932" y="285"/>
      <point x="931" y="266" type="qcurve" smooth="yes"/>
      <point x="931" y="117" type="line" smooth="yes"/>
      <point x="931" y="116"/>
      <point x="932" y="99"/>
      <point x="932" y="95"/>
      <point x="933" y="80"/>
      <point x="934" y="75"/>
      <point x="936" y="62"/>
      <point x="940" y="55"/>
      <point x="944" y="45"/>
      <point x="950" y="37"/>
      <point x="954" y="33" type="qcurve"/>
      <point x="938" y="33"/>
      <point x="906" y="30"/>
      <point x="870" y="24"/>
      <point x="846" y="19"/>
      <point x="802" y="10"/>
      <point x="792" y="8" type="qcurve" smooth="yes"/>
      <point x="646" y="-23"/>
      <point x="549" y="-23" type="qcurve" smooth="yes"/>
      <point x="423" y="-25"/>
      <point x="320" y="-3" type="qcurve" smooth="yes"/>
      <point x="163" y="31"/>
      <point x="89" y="126" type="qcurve" smooth="yes"/>
      <point x="8" y="231"/>
      <point x="29" y="394" type="qcurve" smooth="yes"/>
      <point x="37" y="456"/>
      <point x="96" y="566"/>
      <point x="143" y="603" type="qcurve" smooth="yes"/>
      <point x="253" y="694"/>
    </contour>
  </outline>
</glyph>
<glyph name="iogonek" format="2">
  <advance width="459"/>
  <unicode hex="012F"/>
  <outline>
    <contour>
      <point x="43" y="700" type="qcurve"/>
      <point x="426" y="700" type="line"/>
      <point x="402" y="686"/>
      <point x="375" y="634"/>
      <point x="376" y="606" type="qcurve" smooth="yes"/>
      <point x="376" y="95" type="line" smooth="yes"/>
      <point x="375" y="65"/>
      <point x="402" y="13"/>
      <point x="426" y="-1" type="qcurve"/>
      <point x="335" y="-1" type="line" smooth="yes"/>
      <point x="334" y="-4"/>
      <point x="332" y="-6" type="qcurve" smooth="yes"/>
      <point x="307" y="-49"/>
      <point x="290" y="-65" type="qcurve" smooth="yes"/>
      <point x="250" y="-101"/>
      <point x="237" y="-123" type="qcurve" smooth="yes"/>
      <point x="226" y="-140"/>
      <point x="223" y="-153" type="qcurve" smooth="yes"/>
      <point x="220" y="-169"/>
      <point x="229" y="-187" type="qcurve" smooth="yes"/>
      <point x="242" y="-216"/>
      <point x="293" y="-216" type="qcurve" smooth="yes"/>
      <point x="370" y="-216"/>
      <point x="434" y="-157" type="qcurve"/>
      <point x="434" y="-290" type="line"/>
      <point x="335" y="-352"/>
      <point x="195" y="-342" type="qcurve" smooth="yes"/>
      <point x="95" y="-333"/>
      <point x="56" y="-290" type="qcurve" smooth="yes"/>
      <point x="28" y="-262"/>
      <point x="23" y="-174"/>
      <point x="44" y="-139" type="qcurve" smooth="yes"/>
      <point x="55" y="-116"/>
      <point x="89" y="-74"/>
      <point x="135" y="-26"/>
      <point x="148" y="-11" type="qcurve" smooth="yes"/>
      <point x="151" y="-6"/>
      <point x="154" y="-1" type="qcurve"/>
      <point x="43" y="-1" type="line"/>
      <point x="93" y="30"/>
      <point x="93" y="90" type="qcurve" smooth="yes"/>
      <point x="93" y="605" type="line" smooth="yes"/>
      <point x="94" y="634"/>
      <point x="67" y="686"/>
    </contour>
  </outline>
</glyph>
<glyph name="jcircumflex" format="2">
  <advance width="602"/>
  <unicode hex="0135"/>
  <outline>
    <contour>
      <point x="345" y="947" type="qcurve"/>
      <point x="348" y="947" type="line"/>
      <point x="429" y="947" type="line"/>
      <point x="573" y="750" type="line"/>
      <point x="471" y="750" type="line"/>
      <point x="458" y="768"/>
      <point x="402" y="846"/>
      <point x="387" y="866" type="qcurve"/>
      <point x="377" y="853"/>
      <point x="320" y="773"/>
      <point x="302" y="750" type="qcurve"/>
      <point x="205" y="750" type="line"/>
      <point x="225" y="779"/>
      <point x="320" y="910"/>
      <point x="345" y="947" type="qcurve"/>
      <point x="348" y="947" type="line"/>
      <point x="429" y="947" type="line"/>
      <point x="573" y="750" type="line"/>
      <point x="471" y="750" type="line"/>
      <point x="458" y="768"/>
      <point x="402" y="846"/>
      <point x="387" y="866" type="qcurve"/>
      <point x="377" y="853"/>
      <point x="320" y="773"/>
      <point x="302" y="750" type="qcurve"/>
      <point x="205" y="750" type="line"/>
      <point x="225" y="779"/>
      <point x="320" y="910"/>
      <point x="345" y="947" type="qcurve"/>
      <point x="348" y="947" type="line"/>
      <point x="429" y="947" type="line"/>
      <point x="573" y="750" type="line"/>
      <point x="471" y="750" type="line"/>
      <point x="458" y="768"/>
      <point x="402" y="846"/>
      <point x="387" y="866" type="qcurve"/>
      <point x="377" y="853"/>
      <point x="320" y="773"/>
      <point x="302" y="750" type="qcurve"/>
      <point x="205" y="750" type="line"/>
      <point x="225" y="779"/>
      <point x="320" y="910"/>
    </contour>
    <contour>
      <point x="193" y="700" type="qcurve"/>
      <point x="577" y="700" type="line"/>
      <point x="544" y="680"/>
      <point x="534" y="647" type="qcurve" smooth="yes"/>
      <point x="529" y="637"/>
      <point x="525" y="610"/>
      <point x="527" y="587"/>
      <point x="526" y="574" type="qcurve" smooth="yes"/>
      <point x="526" y="233"/>
      <point x="526" y="233" type="qcurve" smooth="yes"/>
      <point x="526" y="122"/>
      <point x="472" y="59" type="qcurve" smooth="yes"/>
      <point x="418" y="-3"/>
      <point x="319" y="-19" type="qcurve" smooth="yes"/>
      <point x="230" y="-33"/>
      <point x="117" y="-15" type="qcurve"/>
      <point x="44" y="1"/>
      <point x="25" y="10" type="qcurve"/>
      <point x="25" y="200" type="line"/>
      <point x="71" y="157"/>
      <point x="123" y="153" type="qcurve" smooth="yes"/>
      <point x="188" y="147"/>
      <point x="217" y="176" type="qcurve" smooth="yes"/>
      <point x="243" y="202"/>
      <point x="243" y="254" type="qcurve" smooth="yes"/>
      <point x="243" y="254"/>
      <point x="243" y="606" type="qcurve" smooth="yes"/>
      <point x="244" y="634"/>
      <point x="217" y="686"/>
    </contour>
  </outline>
</glyph>
<glyph name="tcaron" format="2">
  <advance width="1116"/>
  <unicode hex="0165"/>
  <outline>
    <contour>
      <point x="952" y="701" type="qcurve"/>
      <point x="1091" y="701" type="line"/>
      <point x="1031" y="578"/>
      <point x="996" y="501" type="qcurve"/>
      <point x="915" y="501" type="line"/>
      <point x="921" y="532"/>
      <point x="944" y="639"/>
      <point x="949" y="660" type="qcurve" smooth="yes"/>
      <point x="952" y="673"/>
    </contour>
    <contour>
      <point x="952" y="701" type="qcurve"/>
      <point x="1091" y="701" type="line"/>
      <point x="1031" y="578"/>
      <point x="996" y="501" type="qcurve"/>
      <point x="915" y="501" type="line"/>
      <point x="921" y="532"/>
      <point x="944" y="639"/>
      <point x="949" y="660" type="qcurve" smooth="yes"/>
      <point x="952" y="673"/>
    </contour>
    <contour>
      <point x="952" y="701" type="qcurve"/>
      <point x="1091" y="701" type="line"/>
      <point x="1031" y="578"/>
      <point x="996" y="501" type="qcurve"/>
      <point x="915" y="501" type="line"/>
      <point x="921" y="532"/>
      <point x="944" y="639"/>
      <point x="949" y="660" type="qcurve" smooth="yes"/>
      <point x="952" y="673"/>
    </contour>
    <contour>
      <point x="26" y="701" type="qcurve"/>
      <point x="865" y="701" type="line"/>
      <point x="865" y="461"/>
      <point x="865" y="461" type="qcurve"/>
      <point x="834" y="511"/>
      <point x="774" y="511" type="qcurve" smooth="yes"/>
      <point x="774" y="511"/>
      <point x="587" y="511" type="qcurve"/>
      <point x="587" y="102" type="line" smooth="yes"/>
      <point x="585" y="71"/>
      <point x="611" y="15"/>
      <point x="637" y="0" type="qcurve"/>
      <point x="254" y="0" type="line"/>
      <point x="284" y="18"/>
      <point x="297" y="52" type="qcurve" smooth="yes"/>
      <point x="304" y="70"/>
      <point x="304" y="123" type="qcurve" smooth="yes"/>
      <point x="304" y="511" type="line"/>
      <point x="115" y="511"/>
      <point x="115" y="511" type="qcurve" smooth="yes"/>
      <point x="56" y="511"/>
      <point x="25" y="461" type="qcurve"/>
      <point x="26" y="501"/>
      <point x="26" y="661"/>
    </contour>
  </outline>
</glyph>
<glyph name="Ubreve" format="2">
  <advance width="984"/>
  <unicode hex="016C"/>
  <outline>
    <contour>
      <point x="493" y="887" type="qcurve" smooth="yes"/>
      <point x="455" y="887"/>
      <point x="418" y="923"/>
      <point x="417" y="950" type="qcurve"/>
      <point x="268" y="950" type="line"/>
      <point x="269" y="950"/>
      <point x="268" y="949" type="qcurve" smooth="yes"/>
      <point x="269" y="906"/>
      <point x="298" y="835"/>
      <point x="327" y="808" type="qcurve" smooth="yes"/>
      <point x="355" y="782"/>
      <point x="397" y="767" type="qcurve" smooth="yes"/>
      <point x="438" y="752"/>
      <point x="493" y="752" type="qcurve" smooth="yes"/>
      <point x="601" y="752"/>
      <point x="659" y="807" type="qcurve" smooth="yes"/>
      <point x="718" y="862"/>
      <point x="718" y="949" type="qcurve" smooth="yes"/>
      <point x="718" y="950"/>
      <point x="718" y="950" type="qcurve"/>
      <point x="569" y="950" type="line"/>
      <point x="570" y="922"/>
      <point x="529" y="887"/>
    </contour>
    <contour>
      <point x="25" y="700" type="qcurve"/>
      <point x="26" y="699"/>
      <point x="203" y="700" type="qcurve" smooth="yes"/>
      <point x="380" y="700" type="line"/>
      <point x="358" y="675"/>
      <point x="358" y="612" type="qcurve" smooth="yes"/>
      <point x="358" y="283" type="line" smooth="yes"/>
      <point x="358" y="213"/>
      <point x="400" y="180" type="qcurve" smooth="yes"/>
      <point x="447" y="143"/>
      <point x="534" y="150" type="qcurve" smooth="yes"/>
      <point x="597" y="155"/>
      <point x="625" y="202" type="qcurve" smooth="yes"/>
      <point x="644" y="234"/>
      <point x="644" y="298" type="qcurve" smooth="yes"/>
      <point x="644" y="350"/>
      <point x="644" y="560"/>
      <point x="643" y="612" type="qcurve" smooth="yes"/>
      <point x="643" y="676"/>
      <point x="619" y="700" type="qcurve"/>
      <point x="790" y="699"/>
      <point x="959" y="700" type="qcurve"/>
      <point x="909" y="669"/>
      <point x="909" y="607" type="qcurve" smooth="yes"/>
      <point x="909" y="266" type="line" smooth="yes"/>
      <point x="909" y="153"/>
      <point x="850" y="83" type="qcurve" smooth="yes"/>
      <point x="794" y="17"/>
      <point x="688" y="-6" type="qcurve" smooth="yes"/>
      <point x="582" y="-31"/>
      <point x="428" y="-24" type="qcurve" smooth="yes"/>
      <point x="252" y="-15"/>
      <point x="161" y="64" type="qcurve" smooth="yes"/>
      <point x="77" y="135"/>
      <point x="75" y="261" type="qcurve" smooth="yes"/>
      <point x="74" y="261"/>
      <point x="74" y="436" type="qcurve" smooth="yes"/>
      <point x="75" y="612" type="line" smooth="yes"/>
      <point x="73" y="670"/>
    </contour>
  </outline>
</glyph>
<glyph name="uogonek" format="2">
  <advance width="984"/>
  <unicode hex="0173"/>
  <outline>
    <contour>
      <point x="25" y="700" type="qcurve"/>
      <point x="26" y="699"/>
      <point x="203" y="700" type="qcurve" smooth="yes"/>
      <point x="380" y="700" type="line"/>
      <point x="358" y="675"/>
      <point x="358" y="612" type="qcurve" smooth="yes"/>
      <point x="358" y="283" type="line" smooth="yes"/>
      <point x="358" y="213"/>
      <point x="400" y="180" type="qcurve" smooth="yes"/>
      <point x="447" y="143"/>
      <point x="534" y="150" type="qcurve" smooth="yes"/>
      <point x="597" y="155"/>
      <point x="625" y="202" type="qcurve" smooth="yes"/>
      <point x="644" y="234"/>
      <point x="644" y="298" type="qcurve" smooth="yes"/>
      <point x="644" y="350"/>
      <point x="644" y="560"/>
      <point x="643" y="612" type="qcurve" smooth="yes"/>
      <point x="643" y="676"/>
      <point x="619" y="700" type="qcurve"/>
      <point x="790" y="699"/>
      <point x="959" y="700" type="qcurve"/>
      <point x="909" y="669"/>
      <point x="909" y="607" type="qcurve" smooth="yes"/>
      <point x="909" y="266" type="line" smooth="yes"/>
      <point x="909" y="153"/>
      <point x="850" y="83" type="qcurve" smooth="yes"/>
      <point x="794" y="17"/>
      <point x="688" y="-6" type="qcurve" smooth="yes"/>
      <point x="637" y="-18"/>
      <point x="575" y="-23" type="qcurve"/>
      <point x="563" y="-38"/>
      <point x="545" y="-57" type="qcurve" smooth="yes"/>
      <point x="511" y="-93"/>
      <point x="498" y="-115" type="qcurve" smooth="yes"/>
      <point x="487" y="-129"/>
      <point x="484" y="-145" type="qcurve" smooth="yes"/>
      <point x="483" y="-149"/>
      <point x="483" y="-153" type="qcurve" smooth="yes"/>
      <point x="483" y="-165"/>
      <point x="490" y="-179" type="qcurve" smooth="yes"/>
      <point x="502" y="-208"/>
      <point x="554" y="-208" type="qcurve" smooth="yes"/>
      <point x="630" y="-208"/>
      <point x="695" y="-149" type="qcurve"/>
      <point x="695" y="-282" type="line"/>
      <point x="609" y="-335"/>
      <point x="493" y="-335" type="qcurve" smooth="yes"/>
      <point x="475" y="-335"/>
      <point x="456" y="-334" type="qcurve" smooth="yes"/>
      <point x="356" y="-325"/>
      <point x="317" y="-282" type="qcurve" smooth="yes"/>
      <point x="288" y="-253"/>
      <point x="286" y="-210" type="qcurve" smooth="yes"/>
      <point x="286" y="-205"/>
      <point x="286" y="-201" type="qcurve" smooth="yes"/>
      <point x="286" y="-162"/>
      <point x="305" y="-131" type="qcurve" smooth="yes"/>
      <point x="316" y="-108"/>
      <point x="350" y="-65"/>
      <point x="373" y="-42" type="qcurve" smooth="yes"/>
      <point x="384" y="-31"/>
      <point x="392" y="-21" type="qcurve"/>
      <point x="242" y="-7"/>
      <point x="161" y="64" type="qcurve" smooth="yes"/>
      <point x="77" y="135"/>
      <point x="75" y="261" type="qcurve" smooth="yes"/>
      <point x="74" y="261"/>
      <point x="74" y="436" type="qcurve" smooth="yes"/>
      <point x="75" y="612" type="line" smooth="yes"/>
      <point x="73" y="670"/>
    </contour>
  </outline>
</glyph>
<glyph name="Ydieresis" format="2">
  <advance width="1095"/>
  <unicode hex="0178"/>
  <outline>
    <contour>
      <point x="680" y="751" type="qcurve" smooth="yes"/>
      <point x="630" y="751"/>
      <point x="566" y="804"/>
      <point x="566" y="851" type="qcurve" smooth="yes"/>
      <point x="566" y="873"/>
      <point x="581" y="909"/>
      <point x="610" y="936"/>
      <point x="652" y="951"/>
      <point x="680" y="951" type="qcurve" smooth="yes"/>
      <point x="735" y="951"/>
      <point x="794" y="895"/>
      <point x="794" y="851" type="qcurve" smooth="yes"/>
      <point x="794" y="828"/>
      <point x="776" y="791"/>
      <point x="745" y="765"/>
      <point x="704" y="751"/>
    </contour>
    <contour>
      <point x="415" y="751" type="qcurve" smooth="yes"/>
      <point x="365" y="751"/>
      <point x="301" y="804"/>
      <point x="301" y="851" type="qcurve" smooth="yes"/>
      <point x="301" y="873"/>
      <point x="316" y="909"/>
      <point x="345" y="936"/>
      <point x="387" y="951"/>
      <point x="415" y="951" type="qcurve" smooth="yes"/>
      <point x="469" y="951"/>
      <point x="529" y="895"/>
      <point x="529" y="851" type="qcurve" smooth="yes"/>
      <point x="529" y="828"/>
      <point x="511" y="791"/>
      <point x="480" y="765"/>
      <point x="439" y="751"/>
    </contour>
    <contour>
      <point x="411" y="237" type="line"/>
      <point x="110" y="629" type="line" smooth="yes"/>
      <point x="63" y="689"/>
      <point x="25" y="701" type="qcurve"/>
      <point x="405" y="701" type="line"/>
      <point x="393" y="690"/>
      <point x="393" y="673" type="qcurve" smooth="yes"/>
      <point x="393" y="655"/>
      <point x="415" y="629" type="qcurve" smooth="yes"/>
      <point x="547" y="457" type="line"/>
      <point x="680" y="629" type="line" smooth="yes"/>
      <point x="703" y="656"/>
      <point x="703" y="673" type="qcurve" smooth="yes"/>
      <point x="703" y="689"/>
      <point x="691" y="701" type="qcurve"/>
      <point x="1070" y="701" type="line"/>
      <point x="1049" y="693"/>
      <point x="997" y="648"/>
      <point x="985" y="629" type="qcurve" smooth="yes"/>
      <point x="683" y="237" type="line"/>
      <point x="683" y="215" type="line" smooth="yes"/>
      <point x="683" y="40"/>
      <point x="742" y="1" type="qcurve"/>
      <point x="352" y="1" type="line"/>
      <point x="387" y="23"/>
      <point x="411" y="130"/>
      <point x="411" y="215" type="qcurve" smooth="yes"/>
    </contour>
  </outline>
</glyph>
<glyph name="zacute" format="2">
  <advance width="849"/>
  <unicode hex="017A"/>
  <outline>
    <contour>
      <point x="701" y="948" type="qcurve"/>
      <point x="395" y="948" type="line"/>
      <point x="393" y="940"/>
      <point x="382" y="912"/>
      <point x="379" y="904" type="qcurve" smooth="yes"/>
      <point x="292" y="750" type="line"/>
      <point x="470" y="750" type="line"/>
      <point x="516" y="788"/>
      <point x="681" y="931"/>
      <point x="701" y="948" type="qcurve"/>
      <point x="395" y="948" type="line"/>
      <point x="393" y="940"/>
      <point x="382" y="912"/>
      <point x="379" y="904" type="qcurve" smooth="yes"/>
      <point x="292" y="750" type="line"/>
      <point x="470" y="750" type="line"/>
      <point x="516" y="788"/>
      <point x="681" y="931"/>
      <point x="701" y="948" type="qcurve"/>
      <point x="395" y="948" type="line"/>
      <point x="393" y="940"/>
      <point x="382" y="912"/>
      <point x="379" y="904" type="qcurve" smooth="yes"/>
      <point x="292" y="750" type="line"/>
      <point x="470" y="750" type="line"/>
      <point x="516" y="788"/>
      <point x="681" y="931"/>
    </contour>
    <contour>
      <point x="48" y="444" type="qcurve"/>
      <point x="48" y="700" type="line"/>
      <point x="798" y="700" type="line"/>
      <point x="798" y="554" type="line"/>
      <point x="723" y="480"/>
      <point x="451" y="211"/>
      <point x="407" y="168" type="qcurve"/>
      <point x="696" y="168"/>
      <point x="696" y="168" type="qcurve" smooth="yes"/>
      <point x="734" y="169"/>
      <point x="802" y="211"/>
      <point x="824" y="245" type="qcurve"/>
      <point x="824" y="0" type="line"/>
      <point x="25" y="0" type="line"/>
      <point x="25" y="134" type="line"/>
      <point x="415" y="521" type="line"/>
      <point x="375" y="520"/>
      <point x="216" y="520"/>
      <point x="176" y="520" type="qcurve" smooth="yes"/>
      <point x="138" y="519"/>
      <point x="70" y="478"/>
    </contour>
  </outline>
</glyph>
<glyph name="longs" format="2">
  <advance width="894"/>
  <unicode hex="017F"/>
  <outline>
    <contour>
      <point x="460" y="408" type="line"/>
      <point x="460" y="532" type="line"/>
      <point x="775" y="532" type="line" smooth="yes"/>
      <point x="840" y="532"/>
      <point x="869" y="489" type="qcurve"/>
      <point x="869" y="489"/>
      <point x="869" y="700" type="qcurve"/>
      <point x="745" y="700"/>
      <point x="301" y="700"/>
      <point x="176" y="701" type="qcurve"/>
      <point x="201" y="687"/>
      <point x="214" y="662" type="qcurve" smooth="yes"/>
      <point x="227" y="638"/>
      <point x="227" y="606" type="qcurve" smooth="yes"/>
      <point x="227" y="606"/>
      <point x="227" y="408" type="qcurve"/>
      <point x="25" y="408" type="line"/>
      <point x="25" y="259" type="line"/>
      <point x="227" y="259" type="line"/>
      <point x="227" y="95" type="line" smooth="yes"/>
      <point x="227" y="65"/>
      <point x="214" y="40" type="qcurve" smooth="yes"/>
      <point x="200" y="14"/>
      <point x="176" y="0" type="qcurve"/>
      <point x="343" y="2"/>
      <point x="510" y="0" type="qcurve"/>
      <point x="460" y="31"/>
      <point x="460" y="91" type="qcurve" smooth="yes"/>
      <point x="460" y="91"/>
      <point x="460" y="259" type="qcurve" smooth="yes"/>
    </contour>
  </outline>
</glyph>
<glyph name="florin" format="2">
  <advance width="880"/>
  <unicode hex="0192"/>
  <outline>
    <contour>
      <point x="210" y="666" type="qcurve"/>
      <point x="318" y="665"/>
      <point x="748" y="665"/>
      <point x="855" y="665" type="qcurve"/>
      <point x="808" y="458" type="line"/>
      <point x="792" y="497"/>
      <point x="736" y="497" type="qcurve" smooth="yes"/>
      <point x="467" y="497" type="line"/>
      <point x="441" y="384" type="line"/>
      <point x="663" y="384" type="line"/>
      <point x="629" y="235" type="line"/>
      <point x="406" y="235" type="line"/>
      <point x="352" y="0" type="line"/>
      <point x="352" y="0"/>
      <point x="100" y="0" type="qcurve"/>
      <point x="155" y="235" type="line"/>
      <point x="25" y="235" type="line"/>
      <point x="59" y="384" type="line"/>
      <point x="189" y="384" type="line"/>
      <point x="233" y="575" type="line" smooth="yes"/>
      <point x="240" y="606"/>
      <point x="235" y="628" type="qcurve" smooth="yes"/>
      <point x="228" y="653"/>
    </contour>
  </outline>
</glyph>
<glyph name="caron" format="2">
  <advance width="418"/>
  <unicode hex="02C7"/>
  <outline>
    <contour>
      <point x="165" y="522" type="qcurve"/>
      <point x="168" y="522" type="line"/>
      <point x="249" y="522" type="line"/>
      <point x="393" y="719" type="line"/>
      <point x="291" y="719" type="line"/>
      <point x="278" y="701"/>
      <point x="222" y="624"/>
      <point x="207" y="603" type="qcurve"/>
      <point x="197" y="616"/>
      <point x="140" y="697"/>
      <point x="123" y="719" type="qcurve"/>
      <point x="25" y="719" type="line"/>
      <point x="45" y="690"/>
      <point x="140" y="559"/>
      <point x="165" y="522" type="qcurve"/>
      <point x="168" y="522" type="line"/>
      <point x="249" y="522" type="line"/>
      <point x="393" y="719" type="line"/>
      <point x="291" y="719" type="line"/>
      <point x="278" y="701"/>
      <point x="222" y="624"/>
      <point x="207" y="603" type="qcurve"/>
      <point x="197" y="616"/>
      <point x="140" y="697"/>
      <point x="123" y="719" type="qcurve"/>
      <point x="25" y="719" type="line"/>
      <point x="45" y="690"/>
      <point x="140" y="559"/>
      <point x="165" y="522" type="qcurve"/>
      <point x="168" y="522" type="line"/>
      <point x="249" y="522" type="line"/>
      <point x="393" y="719" type="line"/>
      <point x="291" y="719" type="line"/>
      <point x="278" y="701"/>
      <point x="222" y="624"/>
      <point x="207" y="603" type="qcurve"/>
      <point x="197" y="616"/>
      <point x="140" y="697"/>
      <point x="123" y="719" type="qcurve"/>
      <point x="25" y="719" type="line"/>
      <point x="45" y="690"/>
      <point x="140" y="559"/>
    </contour>
  </outline>
</glyph>
<glyph name="uni02CB" format="2">
  <advance width="459"/>
  <unicode hex="02CB"/>
  <outline>
    <contour>
      <point x="25" y="720" type="qcurve"/>
      <point x="331" y="720" type="line"/>
      <point x="333" y="712"/>
      <point x="343" y="684"/>
      <point x="346" y="676" type="qcurve" smooth="yes"/>
      <point x="434" y="522" type="line"/>
      <point x="256" y="522" type="line"/>
      <point x="209" y="560"/>
      <point x="45" y="703"/>
      <point x="25" y="720" type="qcurve"/>
      <point x="331" y="720" type="line"/>
      <point x="333" y="712"/>
      <point x="343" y="684"/>
      <point x="346" y="676" type="qcurve" smooth="yes"/>
      <point x="434" y="522" type="line"/>
      <point x="256" y="522" type="line"/>
      <point x="209" y="560"/>
      <point x="45" y="703"/>
      <point x="25" y="720" type="qcurve"/>
      <point x="331" y="720" type="line"/>
      <point x="333" y="712"/>
      <point x="343" y="684"/>
      <point x="346" y="676" type="qcurve" smooth="yes"/>
      <point x="434" y="522" type="line"/>
      <point x="256" y="522" type="line"/>
      <point x="209" y="560"/>
      <point x="45" y="703"/>
    </contour>
  </outline>
</glyph>
